HIERARCHY
ROOT Hips
{
	OFFSET 0.00000 0.00000 0.00000
	CHANNELS 6 Xposition Yposition Zposition Zrotation Yrotation Xrotation 
	JOINT LHipJoint
	{
		OFFSET 0 0 0
		CHANNELS 3 Zrotation Yrotation Xrotation
		JOINT LeftHip
		{
			OFFSET 1.62329 -1.80800 0.67318
			CHANNELS 3 Zrotation Yrotation Xrotation
			JOINT LeftKnee
			{
				OFFSET 2.57139 -7.06484 0.00000
				CHANNELS 3 Zrotation Yrotation Xrotation
				JOINT LeftAnkle
				{
					OFFSET 2.52017 -6.92413 0.00000
					CHANNELS 3 Zrotation Yrotation Xrotation
					JOINT LeftToe
					{
						OFFSET 0.23295 -0.64001 2.10214
						CHANNELS 3 Zrotation Yrotation Xrotation
						End Site
						{
							OFFSET 0.00000 -0.00000 1.10139
						}
					}
				}
			}
		}
	}
	JOINT RHipJoint
	{
		OFFSET 0 0 0
		CHANNELS 3 Zrotation Yrotation Xrotation
		JOINT RightHip
		{
			OFFSET -1.48061 -1.80800 0.67318
			CHANNELS 3 Zrotation Yrotation Xrotation
			JOINT RightKnee
			{
				OFFSET -2.63258 -7.23296 0.00000
				CHANNELS 3 Zrotation Yrotation Xrotation
				JOINT RightAnkle
				{
					OFFSET -2.54779 -7.00000 0.00000
					CHANNELS 3 Zrotation Yrotation Xrotation
					JOINT RightToe
					{
						OFFSET -0.23067 -0.63376 2.12161
						CHANNELS 3 Zrotation Yrotation Xrotation
						End Site
						{
							OFFSET -0.00000 -0.00000 1.11000
						}
					}
				}
			}
		}
	}
	JOINT lowerback
	{
		OFFSET 0 0 0
		CHANNELS 3 Zrotation Yrotation Xrotation
		JOINT Chest
		{
			OFFSET -0.02108 2.07573 -0.16981
			CHANNELS 3 Zrotation Yrotation Xrotation
			JOINT Chest2
			{
				OFFSET 0.05070 2.08439 -0.03141
				CHANNELS 3 Zrotation Yrotation Xrotation
				JOINT lowerneck
				{
					OFFSET 0 0 0
					CHANNELS 3 Zrotation Yrotation Xrotation
					JOINT Neck
					{
						OFFSET -0.10731 1.60408 0.31370
						CHANNELS 3 Zrotation Yrotation Xrotation
						JOINT Head
						{
							OFFSET 0.08411 1.65679 -0.30822
							CHANNELS 3 Zrotation Yrotation Xrotation
							End Site
							{
								OFFSET 0.03911 1.69149 -0.14146
							}
						}
					}
				}
				JOINT LeftCollar
				{
					OFFSET 0 0 0
					CHANNELS 3 Zrotation Yrotation Xrotation
					JOINT LeftShoulder
					{
						OFFSET 3.52315 0.73219 -0.54694
CHANNELS 3 Zrotation Xrotation Yrotation
						JOINT LeftElbow
						{
OFFSET 0 -5.324620 -0.000000
CHANNELS 3 Zrotation Xrotation Yrotation
							JOINT LeftWrist
							{
OFFSET 0 -3.484020 -0.000000
CHANNELS 3 Zrotation Xrotation Yrotation
								JOINT lhand
								{
									OFFSET 0 0 0
CHANNELS 3 Zrotation Xrotation Yrotation
									JOINT LFingers
									{
OFFSET 0 -0.572480 -0.000000
CHANNELS 3 Zrotation Xrotation Yrotation
										End Site
										{
OFFSET 0 -0.461540 -0.000000
										}
									}
								}
								JOINT LThumb
								{
OFFSET 0 0.000000 0.000000
CHANNELS 3 Zrotation Xrotation Yrotation
									End Site
									{
OFFSET 0 -0.468590 0.468590
									}
								}
							}
						}
					}
				}
				JOINT RightCollar
				{
					OFFSET 0 0 0
					CHANNELS 3 Zrotation Yrotation Xrotation
					JOINT RightShoulder
					{
						OFFSET -3.41766 0.93592 -0.10019
CHANNELS 3 Zrotation Xrotation Yrotation
						JOINT RightElbow
						{
OFFSET 0 -5.335890 -0.000000
CHANNELS 3 Zrotation Xrotation Yrotation
							JOINT RightWrist
							{
OFFSET 0 -3.641340 -0.000000
CHANNELS 3 Zrotation Xrotation Yrotation
								JOINT rhand
								{
									OFFSET 0 0 0
CHANNELS 3 Zrotation Xrotation Yrotation
									JOINT RFingers
									{
OFFSET 0 -0.734810 -0.000000
CHANNELS 3 Zrotation Xrotation Yrotation
										End Site
										{
OFFSET 0 -0.592420 -0.000000
										}
									}
								}
								JOINT RThumb
								{
OFFSET 0 0.000000 0.000000
CHANNELS 3 Zrotation Xrotation Yrotation
									End Site
									{
OFFSET 0 -0.601470 0.601470
									}
								}
							}
						}
					}
				}
			}
		}
	}
}
MOTION
Frames: 10
Frame Time: 0.008333333333333333
-1.063494 17.865528 0.408720 5.487091 -22.863129 12.408952 0.000000 0.000000 0.000000 -21.174977 5.179405 -17.168182 1.001564 6.368483 17.857426 -1.895490 24.995269 -18.993444 1.077750 -6.591085 -18.512236 0.000000 0.000000 0.000000 2.336987 24.643594 -30.072019 -2.980764 -10.663799 31.154311 0.004899 7.264553 -4.976306 -0.009521 -0.630305 1.732076 -4.169672 -7.044164 8.512687 6.654583 -9.677443 3.749304 9.961019 -5.092056 1.089447 -13.638890 -4.171111 -19.920912 3.892192 -2.924648 34.129163 3.434756 -2.574207 15.758125 0.000000 0.000000 0.000000 -45.278400 -63.579600 -147.009200 22.102600 -33.092700 6.641800 57.063300 82.866800 -31.997800 0.000000 0.000000 0.000000 -7.125000 0.000000 0.000000 51.369500 73.624600 -37.158400 0.000000 0.000000 0.000000 -40.845624 -30.373730 53.785125 -58.015891 -55.757109 -32.695657 -51.850954 68.753832 14.479918 0.000000 0.000000 0.000000 7.125000 0.000000 0.000000 -25.057861 50.897301 3.848921
-1.085522 17.868713 0.530826 6.531756 -26.964846 11.939541 0.000000 0.000000 0.000000 -22.689873 7.201606 -16.804518 0.982844 6.310321 17.687623 -2.102333 25.842479 -18.617456 1.386744 -7.450951 -21.058476 0.000000 0.000000 0.000000 0.792914 26.923800 -30.422400 -3.015411 -10.719968 31.341217 0.087769 8.513021 -4.041467 -0.047303 -1.403665 3.860252 -4.080068 -6.952118 8.564257 6.827213 -9.571751 4.043390 10.080765 -5.068393 1.368693 -11.917134 -2.272624 -22.056751 2.557577 0.096930 33.802725 3.138219 -1.265995 15.717679 0.000000 0.000000 0.000000 -45.278400 -63.579600 -147.009200 22.102600 -33.092700 6.641800 57.063300 82.866800 -31.997800 0.000000 0.000000 0.000000 -7.125000 0.000000 0.000000 51.369500 73.624600 -37.158400 0.000000 0.000000 0.000000 -38.923901 -32.227605 49.346234 -60.475172 -56.434254 -34.736939 -40.984461 35.734694 0.291693 0.000000 0.000000 0.000000 7.125000 0.000000 0.000000 -11.359168 30.266051 -4.139350
-1.119303 17.881149 0.639492 7.323545 -29.399856 11.566670 0.000000 0.000000 0.000000 -23.688246 9.061298 -17.419634 1.093019 6.643937 18.664666 -1.980324 25.108718 -17.928503 1.397147 -7.477511 -21.137989 0.000000 0.000000 0.000000 -0.278972 28.474651 -30.480822 -3.033697 -10.749448 31.439453 0.135308 9.331461 -3.726360 -0.097063 -2.008867 5.530200 -4.079684 -7.020376 8.275177 7.815267 -9.708446 4.255169 11.108857 -5.216113 1.977686 -10.101588 2.011639 -22.409764 0.746465 6.354368 31.434480 3.148926 1.483421 14.240744 0.000000 0.000000 0.000000 -45.278400 -63.579600 -147.009200 22.102600 -33.092700 6.641800 57.063300 82.866800 -31.997800 0.000000 0.000000 0.000000 -7.125000 0.000000 0.000000 51.369500 73.624600 -37.158400 0.000000 0.000000 0.000000 -40.519990 -32.172262 45.749680 -59.250463 -56.105478 -33.718514 -36.779240 39.016603 14.152654 0.000000 0.000000 0.000000 7.125000 0.000000 0.000000 -8.985674 47.256109 0.511930
-1.169638 17.889028 0.709114 8.441760 -31.172940 10.884890 0.000000 0.000000 0.000000 -24.755714 10.837725 -18.092734 1.210772 6.980502 19.657595 -1.848663 24.207348 -16.838291 1.541962 -7.838578 -22.224901 0.000000 0.000000 0.000000 -1.495618 29.901928 -30.346727 -3.079875 -10.823307 31.686145 0.151172 9.744753 -3.806703 -0.106525 -2.104537 5.794687 -3.427836 -6.747048 7.431051 7.841557 -9.362817 5.096341 10.581430 -5.097409 3.154571 -7.227718 8.110269 -21.312847 -0.919862 14.209815 27.144921 3.089846 5.373349 12.057953 0.000000 0.000000 0.000000 -22.764620 -56.046585 -109.848524 21.542231 -32.455501 6.338506 59.393017 87.118781 -37.277161 0.000000 0.000000 0.000000 -7.125000 0.000000 0.000000 73.983755 78.236983 -62.145903 0.000000 0.000000 0.000000 -43.425346 -32.270373 40.072743 -64.418668 -57.376606 -38.041029 -16.640511 4.033952 17.035274 0.000000 0.000000 0.000000 7.125000 0.000000 0.000000 10.778181 47.418122 -0.656458
-1.208117 17.894868 0.749015 9.464036 -32.240017 10.487296 0.000000 0.000000 0.000000 -25.629322 11.940774 -18.756630 1.289889 7.196383 20.298378 -1.713127 23.196517 -15.454276 1.816131 -8.471776 -24.156673 0.000000 0.000000 0.000000 -2.587580 30.304409 -30.741986 -3.130553 -10.903429 31.954929 0.177363 9.977846 -3.442956 -0.123701 -2.267229 6.244767 -2.356443 -6.377355 6.414008 7.271755 -8.857363 5.898064 9.164085 -4.822362 4.180686 -4.527775 13.380621 -19.428283 -2.321063 20.500889 22.018414 2.722842 8.784005 9.996358 0.000000 0.000000 0.000000 -24.223754 -58.308507 -116.731796 21.204995 -32.066769 6.158428 65.418779 96.502933 -38.945587 0.000000 0.000000 0.000000 -7.125000 0.000000 0.000000 92.556276 -77.505911 105.405763 0.000000 0.000000 0.000000 -46.908389 -31.574564 35.019864 -64.577106 -57.411105 -38.174506 -0.420194 -39.015720 22.895411 0.000000 0.000000 0.000000 7.125000 0.000000 0.000000 28.328553 50.580274 -4.194906
-1.238479 17.894048 0.765926 10.306076 -32.330291 10.223829 0.000000 0.000000 0.000000 -26.013121 11.714079 -18.634484 1.283957 7.180493 20.251315 -1.574561 22.268263 -14.660172 1.833750 -8.510841 -24.276895 0.000000 0.000000 0.000000 -3.467434 30.374219 -30.968277 -3.171732 -10.968050 32.172258 0.193156 10.416234 -3.601424 -0.149396 -2.489942 6.861927 -1.287947 -6.017907 5.829354 6.514251 -8.349971 6.505658 7.645336 -4.502668 4.760445 -3.148251 16.236809 -18.037345 -3.507301 23.659690 16.123358 2.127030 10.721301 7.978581 0.000000 0.000000 0.000000 -26.747581 -60.399062 -124.145790 21.578369 -32.497268 6.357825 65.261824 96.386250 -38.519093 0.000000 0.000000 0.000000 -7.125000 0.000000 0.000000 90.017613 -77.338862 102.999142 0.000000 0.000000 0.000000 -50.139526 -29.247476 32.751100 -62.054436 -56.832944 -36.055788 14.734288 -67.826317 23.429856 0.000000 0.000000 0.000000 7.125000 0.000000 0.000000 41.743448 48.687992 -4.532168
-1.256852 17.884404 0.751009 10.352636 -31.182254 10.498283 0.000000 0.000000 0.000000 -25.682482 11.190125 -18.572370 1.261369 7.119458 20.069859 -1.366955 20.945268 -14.138542 1.846580 -8.538937 -24.363489 0.000000 0.000000 0.000000 -3.506242 29.666895 -31.334115 -3.260922 -11.105928 32.637978 0.180627 10.495558 -3.987038 -0.122411 -2.254854 6.210368 -0.317948 -5.895678 5.938063 6.331018 -8.146304 6.697188 6.914743 -4.342230 4.696627 -3.034160 17.086066 -19.308010 -3.799586 24.577927 12.809409 2.036325 11.328123 7.122315 0.000000 0.000000 0.000000 -30.297097 -61.868379 -131.201894 22.308697 -33.324172 6.754688 70.892473 104.293376 -37.701657 0.000000 0.000000 0.000000 -7.125000 0.000000 0.000000 104.709745 -74.783888 120.433721 0.000000 0.000000 0.000000 -52.397675 -26.849556 32.714141 -61.961807 -56.810413 -35.978297 23.346527 -78.169423 19.417324 0.000000 0.000000 0.000000 7.125000 0.000000 0.000000 45.601168 44.272329 1.057954
-1.271795 17.877511 0.744562 10.555155 -29.339588 10.533851 0.000000 0.000000 0.000000 -25.616931 10.447879 -17.899767 1.130396 6.752703 18.984686 -1.297894 20.449087 -13.821452 1.821629 -8.484256 -24.194834 0.000000 0.000000 0.000000 -3.528359 28.685728 -31.155298 -3.354363 -11.247788 33.120190 0.136566 10.379782 -4.810431 -0.088366 -1.913281 5.266200 -0.452486 -6.128530 6.221880 6.768038 -8.413861 6.058253 7.524022 -4.473952 3.988405 -2.858476 17.424412 -18.410466 -4.793391 24.946746 10.883726 1.588636 11.571154 6.505671 0.000000 0.000000 0.000000 -33.726274 -61.824287 -135.210743 21.857375 -32.815386 6.508425 69.906651 102.360763 -34.868079 0.000000 0.000000 0.000000 -7.125000 0.000000 0.000000 90.141241 -73.978331 106.834573 0.000000 0.000000 0.000000 -53.119055 -24.689019 33.141871 -61.720452 -56.751202 -35.776321 27.561396 -78.813005 16.366866 0.000000 0.000000 0.000000 7.125000 0.000000 0.000000 46.433017 41.237949 5.802647
-1.267857 17.867895 0.709922 10.169943 -27.604472 10.677600 0.000000 0.000000 0.000000 -25.274277 10.096801 -17.483577 1.026752 6.445718 18.083240 -1.285223 20.329194 -13.643517 1.854845 -8.556763 -24.418532 0.000000 0.000000 0.000000 -2.841920 27.638026 -30.919387 -3.411730 -11.333468 33.413120 0.093888 10.070730 -5.372372 -0.030940 -1.134593 3.119142 -0.665152 -6.084347 6.243874 7.103349 -8.343367 5.679135 8.026761 -4.445071 3.652095 -2.623515 17.208886 -18.132676 -5.017309 24.524369 9.838720 1.370122 11.426206 6.176475 0.000000 0.000000 0.000000 -34.688060 -60.857165 -135.524358 21.350779 -32.235451 6.236014 65.209986 95.806213 -35.830039 0.000000 0.000000 0.000000 -7.125000 0.000000 0.000000 92.530629 75.930252 -78.110234 0.000000 0.000000 0.000000 -51.816547 -22.948809 31.774628 -61.225232 -56.627494 -35.362499 18.690466 -72.937539 16.609741 0.000000 0.000000 0.000000 7.125000 0.000000 0.000000 40.568795 42.664364 2.871746
-1.242461 17.857101 0.667132 10.132477 -25.637011 10.829164 0.000000 0.000000 0.000000 -25.328850 8.966418 -16.896008 0.910980 6.081828 17.022104 -1.335645 20.703990 -13.916686 1.664580 -8.129386 -23.107692 0.000000 0.000000 0.000000 -2.671872 26.141937 -30.989283 -3.484758 -11.441241 33.782970 0.058963 9.932445 -5.920671 -0.026303 -1.047087 2.878312 -0.951089 -5.698915 5.569905 7.066976 -7.854009 5.636485 8.072499 -4.208717 3.940587 -2.741897 16.924165 -18.767978 -4.702176 24.045564 8.866866 1.408292 11.255441 5.898572 0.000000 0.000000 0.000000 -33.399350 -59.731131 -134.177175 21.912507 -32.877929 6.538353 59.600116 82.323059 -33.326973 0.000000 0.000000 0.000000 -7.125000 0.000000 0.000000 62.923915 75.126790 -48.550061 0.000000 0.000000 0.000000 -48.784579 -20.863830 27.531950 -59.964629 -56.300492 -34.311663 3.379277 -47.238746 13.416044 0.000000 0.000000 0.000000 7.125000 0.000000 0.000000 27.075001 41.682084 2.415174
